# AST/ASF file generated using VICON BodyLanguage
# -----------------------------------------------
:version 1.10
:name VICON
:units
  mass 1.0
  length 0.45
  angle deg
:documentation
   .ast/.asf automatically generated from VICON data using
   VICON BodyBuilder and BodyLanguage model FoxedUp or BRILLIANT.MOD
:root
   order TX TY TZ RX RY RZ
   axis XYZ
   position 0 0 0  
   orientation 0 0 0 
:bonedata
  begin
     id 1 
     name lhipjoint
     direction 0.54267 -0.795011 0.271047 
     length 2.39899 
     axis 0 0 0  XYZ
  end
  begin
     id 2 
     name lfemur
     direction 0.34202 -0.939693 0  
     length 7.49701  
     axis 0 0 20  XYZ
    dof rx ry rz
    limits (-160.0 20.0)
           (-70.0 70.0)
           (-60.0 70.0)
  end
  begin
     id 3 
     name ltibia
     direction 0.34202 -0.939693 0   
     length 8.1668   
     axis 0 0 20   XYZ
    dof rx
    limits (-10.0 170.0)
  end
  begin
     id 4 
     name lfoot
     direction 0.0736283 -0.202292 0.976554   
     length 2.13544   
     axis -90 7.62852e-016 20   XYZ
    dof rx rz
    limits (-45.0 90.0)
           (-70.0 20.0)
  end
  begin
     id 5 
     name ltoes
     direction 1.53557e-011 -4.22024e-011 1   
     length 1.07411   
     axis -90 7.62852e-016 20   XYZ
    dof rx
    limits (-90.0 20.0)
  end
  begin
     id 6 
     name rhipjoint
     direction -0.538061 -0.797813 0.272002   
     length 2.39057  
     axis 0 0 0  XYZ 
  end
  begin
     id 7 
     name rfemur
     direction -0.34202 -0.939693 0   
     length 7.50152   
     axis 0 0 -20   XYZ
    dof rx ry rz
    limits (-160.0 20.0)
           (-70.0 70.0)
           (-70.0 60.0)
  end
  begin
     id 8 
     name rtibia
     direction -0.34202 -0.939693 0   
     length 8.05793   
     axis 0 0 -20   XYZ
    dof rx
    limits (-10.0 170.0)
 end
 begin
     id 9 
     name rfoot
     direction -0.0765195 -0.210236 0.974652   
     length 2.28698  
     axis -90 -7.62852e-016 -20   XYZ
    dof rx rz
    limits (-45.0 90.0)
           (-20.0 70.0)
  end
  begin
     id 10 
     name rtoes
     direction -1.53542e-011 -4.21847e-011 1   
     length 1.14762   
     axis -90 -7.62852e-016 -20   XYZ
    dof rx
    limits (-90.0 20.0)
  end
  begin
     id 11 
     name lowerback
     direction -0.0217239 0.996592 -0.0795765   
     length 2.08176   
     axis 0 0 0   XYZ
    dof rx ry rz
    limits (-20.0 45.0)
           (-30.0 30.0)
           (-30.0 30.0)
  end
  begin
     id 12 
     name upperback
     direction -0.00563773 0.999651 -0.0258155   
     length 2.08898   
     axis 0 0 0   XYZ
    dof rx ry rz
    limits (-20.0 45.0)
           (-30.0 30.0)
           (-30.0 30.0)
  end
  begin
     id 13 
     name thorax
     direction 0.0032706 0.999923 0.0119599   
     length 2.0968   
     axis 0 0 0   XYZ
    dof rx ry rz
    limits (-20.0 45.0)
           (-30.0 30.0)
           (-30.0 30.0)
  end
  begin
     id 14 
     name lowerneck
     direction -0.0285886 0.99568 0.0883427   
     length 1.81272   
     axis 0 0 0   XYZ
    dof rx ry rz
    limits (-20.0 45.0)
           (-30.0 30.0)
           (-30.0 30.0)
  end
  begin
     id 15 
     name upperneck
     direction 0.0807535 0.97985 -0.18268   
     length 1.82518   
     axis 0 0 0   XYZ
    dof rx ry rz
    limits (-20.0 45.0)
           (-30.0 30.0)
           (-30.0 30.0)
  end
  begin
     id 16
     name head
     direction 0.0236605 0.997053 -0.0729767  
     length 1.84443  
     axis 0 0 0   XYZ
    dof rx ry rz
    limits (-20.0 45.0)
           (-30.0 30.0)
           (-30.0 30.0)
  end
  begin
     id 17 
     name lclavicle
     direction 0.918986 0.39378 -0.0200683  
     length 3.27822  
     axis 0 0 0   XYZ
    dof ry rz
    limits (-20.0 10.0)
           (0.0 20.0)
  end
  begin
     id 18 
     name lhumerus
     direction 1 -4.4897e-011 2.09544e-027   
     length 5.5568   
     axis 180 -30 -90   XYZ
    dof rx ry rz
    limits (-60.0 90.0)
           (-90.0 90.0)
           (-90.0 90.0)
  end
  begin
     id 19
     name lradius
     direction 1 -4.48957e-011 -1.27696e-026   
     length 3.63979   
     axis 180 -30 -90   XYZ
    dof rx
    limits (-10.0 170.0)
  end
  begin
     id 20
     name lwrist
     direction 1 -4.49001e-011 -1.49001e-026   
     length 1.8199   
     axis 9.0955e-015 90 90   XYZ
    dof ry
    limits (-180.0 0.0)
 end
  begin
     id 21 
     name lhand
     direction 1 -4.48709e-011 -2.9758e-026   
     length 0.569419   
     axis 1.90115e-014 90 90   XYZ
    dof rx rz
    limits (-90.0 90.0)
           (-45.0 45.0)
  end
  begin
     id 22 
     name lfingers
     direction 1 -4.49175e-011 -5.96505e-026   
     length 0.45908   
     axis 3.80223e-014 90 90   XYZ
    dof rx
    limits (0.0 90.0)
  end
  begin
     id 23
     name lthumb
     direction 0.707107 -6.34864e-011 0.707107   
     length 0.65915   
     axis -90 45 -3.84942e-014   XYZ
    dof rx rz
    limits (-45.0 45.0)
           (-45.0 45.0)
  end
  begin
     id 24 
     name rclavicle
     direction -0.911913 0.396426 -0.106115   
     length 3.46301  
     axis 0 0 0   XYZ 
    dof ry rz
    limits (-10.0 20.0)
           (-20.0 0.0)
  end
  begin
     id 25 
     name rhumerus
     direction -1 -4.48965e-011 7.78516e-028  
     length 5.34339   
     axis 180 30 90   XYZ
    dof rx ry rz
    limits (-90.0 60.0)
           (-90.0 90.0)
           (-90.0 90.0)
  end
  begin
     id 26 
     name rradius
     direction -1 -4.48948e-011 -5.79823e-027   
     length 3.65101   
     axis 180 30 90   XYZ
    dof rx
    limits (-10.0 170.0)
  end
  begin
     id 27 
     name rwrist
     direction -1 -4.48995e-011 -1.48996e-026   
     length 1.8255   
     axis 9.0955e-015 -90 -90   XYZ
    dof ry
    limits (-180.0 0.0)
  end
  begin
     id 28
     name rhand
     direction -1 -4.48957e-011 -2.97937e-026   
     length 0.694249   
     axis 1.90115e-014 -90 -90   XYZ
    dof rx rz
    limits (-90.0 90.0)
           (-45.0 45.0)
  end
  begin
     id 29
     name rfingers
     direction -1 -4.4898e-011 -5.95943e-026   
     length 0.559721   
     axis 3.80223e-014 -90 -90   XYZ
    dof rx
    limits (0.0 90.0)
  end
  begin
     id 30
     name rthumb
     direction -0.707107 -6.34969e-011 0.707107   
     length 0.803651   
     axis -90 -45 3.84942e-014   XYZ
    dof rx rz
    limits (-45.0 45.0)
           (-45.0 45.0)
  end
:hierarchy
  begin
    root lhipjoint rhipjoint lowerback
    lhipjoint lfemur
    lfemur ltibia
    ltibia lfoot
    lfoot ltoes
    rhipjoint rfemur
    rfemur rtibia
    rtibia rfoot
    rfoot rtoes
    lowerback upperback
    upperback thorax
    thorax lowerneck lclavicle rclavicle
    lowerneck upperneck
    upperneck head
    lclavicle lhumerus
    lhumerus lradius
    lradius lwrist
    lwrist lhand lthumb
    lhand lfingers
    rclavicle rhumerus
    rhumerus rradius
    rradius rwrist
    rwrist rhand rthumb
    rhand rfingers
  end

#!OML:ASF H:\Terrain\Walking\May29\JustinRory\rory.ASF
:FULLY-SPECIFIED
:DEGREES
147
root 12.2218 18.1993 -18.2695 1.25538 -69.7487 2.45395
lowerback -3.46292 2.51615 1.86623
upperback -0.227222 3.2651 0.55261
thorax 1.7776 1.63985 -0.314191
lowerneck -8.36941 6.18667 6.80521
upperneck 21.9718 9.79604 -11.6227
head 9.17288 3.92455 -4.08893
rclavicle -3.87009e-014 -3.57812e-015
rhumerus -41.9147 -22.9537 -66.5136
rradius 27.4461
rwrist 8.3101
rhand -14.5631 32.0599
rfingers 7.12502
rthumb 11.5861 2.40016
lclavicle -3.87009e-014 -3.57812e-015
lhumerus -31.4742 6.72782 77.2857
lradius 26.3021
lwrist -10.408
lhand -13.6273 15.1141
lfingers 7.12502
lthumb 12.4884 44.7209
rfemur -3.66668 13.8587 18.0457
rtibia 17.4223
rfoot -10.1173 -21.7893
rtoes 4.60437
lfemur -3.63524 -3.19365 -16.1727
ltibia 19.8094
lfoot -20.6685 9.31065
ltoes 1.25725
148
root 12.2147 18.1899 -18.2594 0.42362 -70.0646 2.87197
lowerback -3.16277 2.62765 1.86288
upperback 0.0171087 3.41902 0.565341
thorax 1.86261 1.71909 -0.29871
lowerneck -8.38933 6.41583 6.80088
upperneck 22.1429 10.1568 -11.7154
head 9.28099 4.07595 -4.07925
rclavicle 1.11816e-015 1.19271e-014
rhumerus -41.848 -23.2279 -66.3387
rradius 27.4848
rwrist 8.50112
rhand -14.649 31.5162
rfingers 7.12502
rthumb 11.5033 1.85182
lclavicle 1.11816e-015 1.19271e-014
lhumerus -31.3674 5.26249 77.6267
lradius 27.2364
lwrist -9.63106
lhand -13.1099 15.2715
lfingers 7.12502
lthumb 12.9872 44.8473
rfemur -3.19541 14.0135 17.938
rtibia 17.3629
rfoot -10.0823 -21.6479
rtoes 4.94746
lfemur -3.38433 -2.73066 -16.3739
ltibia 20.3757
lfoot -20.8011 9.03588
ltoes 2.28
149
root 12.2188 18.1874 -18.2604 1.89393 -70.2929 1.05197
lowerback -2.88264 2.64964 2.57068
upperback 0.204493 3.42235 0.77379
thorax 1.92731 1.72749 -0.486764
lowerneck -8.30716 6.74697 7.06087
upperneck 22.149 10.6746 -12.1075
head 9.36332 4.30185 -4.19912
rclavicle 1.13195e-013 8.34896e-015
rhumerus -41.5835 -23.488 -66.2963
rradius 27.428
rwrist 8.88874
rhand -14.5201 31.0558
rfingers 7.12502
rthumb 11.6276 1.39842
lclavicle 1.13195e-013 8.34896e-015
lhumerus -31.0209 4.01018 77.7576
lradius 27.6555
lwrist -8.85016
lhand -12.8616 14.8635
lfingers 7.12502
lthumb 13.2266 44.4239
rfemur -3.00952 14.1915 18.6835
rtibia 17.3484
rfoot -9.88088 -21.6638
rtoes 5.03382
lfemur -3.43595 -1.70421 -15.5615
ltibia 20.8899
lfoot -20.5811 8.18537
ltoes 1.62087
150
root 12.254 18.1944 -18.3102 4.36381 -69.5261 -0.691708
lowerback -3.06788 1.79467 2.47518
upperback 0.166795 2.27771 0.89486
thorax 1.95051 1.15441 -0.359778
lowerneck -8.6118 7.73742 9.05644
upperneck 21.8031 12.0109 -13.4284
head 9.67559 4.96128 -4.81143
rclavicle -2.62644e-014 -5.96354e-015
rhumerus -40.0348 -22.7396 -67.967
rradius 27.0911
rwrist 9.10914
rhand -14.6173 30.9846
rfingers 7.12502
rthumb 11.5338 1.32192
lclavicle -2.62644e-014 -5.96354e-015
lhumerus -30.5319 3.38821 76.828
lradius 28.1647
lwrist -7.21704
lhand -12.7127 15.1316
lfingers 7.12502
lthumb 13.3701 44.6826
rfemur -4.04204 14.3622 19.4151
rtibia 17.4611
rfoot -9.57568 -22.6008
rtoes 4.87763
lfemur -4.98608 -0.0296781 -14.3406
ltibia 21.3135
lfoot -19.1825 6.0792
ltoes 0.786483
151
root 12.2446 18.1879 -18.2981 2.96849 -69.7658 0.361568
lowerback -2.72447 1.61051 2.14089
upperback 0.41122 2.055 0.763809
thorax 1.99604 1.04347 -0.324297
lowerneck -8.56363 8.29037 9.9235
upperneck 21.7777 12.7874 -13.9957
head 9.86636 5.33993 -5.05292
rclavicle 1.74682e-014 -4.37326e-015
rhumerus -39.4828 -21.9939 -68.6821
rradius 27.0509
rwrist 8.87209
rhand -15.0435 30.8063
rfingers 7.12502
rthumb 11.1228 1.12105
lclavicle 1.74682e-014 -4.37326e-015
lhumerus -30.3428 2.21106 76.58
lradius 28.7216
lwrist -6.03947
lhand -12.5795 15.3544
lfingers 7.12502
lthumb 13.4985 44.897
rfemur -3.6661 14.1142 19.025
rtibia 17.6212
rfoot -9.43001 -22.2651
rtoes 3.20001
lfemur -4.65615 -0.222894 -14.8299
ltibia 21.7534
lfoot -19.4259 6.05711
ltoes 2.25817
152
root 12.2408 18.1864 -18.2939 1.70796 -69.8744 1.4477
lowerback -2.47021 1.6724 1.88805
upperback 0.481819 2.15511 0.645244
thorax 1.92312 1.0918 -0.306703
lowerneck -8.4866 8.53495 9.97155
upperneck 22.08 13.147 -13.9137
head 10.0082 5.50998 -4.98912
rclavicle 1.30204e-014 2.78299e-015
rhumerus -39.6184 -21.7673 -68.6735
rradius 27.1564
rwrist 8.80325
rhand -16.1982 30.0282
rfingers 7.12502
rthumb 10.0089 0.28621
lclavicle 1.30204e-014 2.78299e-015
lhumerus -30.1915 0.869827 76.5368
lradius 29.3822
lwrist -5.64882
lhand -12.0529 15.4271
lfingers 7.12502
lthumb 14.006 44.9352
rfemur -3.49877 14.0548 18.6148
rtibia 17.8526
rfoot -10.0804 -21.9624
rtoes 5.16643
lfemur -4.5765 -0.083942 -15.2398
ltibia 22.1638
lfoot -19.5045 5.67061
ltoes 3.89498
153
root 12.2556 18.1876 -18.3072 2.12156 -69.7599 0.997861
lowerback -2.20353 1.83339 2.10063
upperback 0.431095 2.36917 0.727708
thorax 1.73102 1.19855 -0.342187
lowerneck -8.06871 8.59928 9.83379
upperneck 22.1029 13.2835 -13.8989
head 9.94342 5.57971 -4.95728
rclavicle 4.64659e-015 -1.98785e-015
rhumerus -39.9554 -21.7615 -68.3067
rradius 27.2864
rwrist 8.62783
rhand -17.7779 28.7856
rfingers 7.12502
rthumb 8.48465 -1.02391
lclavicle 4.64659e-015 -1.98785e-015
lhumerus -29.9408 -0.651489 76.7267
lradius 30.1084
lwrist -5.42949
lhand -11.014 16.2496
lfingers 7.12502
lthumb 15.007 45.6857
rfemur -3.61427 14.2653 18.8161
rtibia 17.9981
rfoot -10.5542 -22.0677
rtoes 7.62901
lfemur -4.91184 0.42358 -14.9274
ltibia 22.5492
lfoot -19.1579 4.99833
ltoes 4.63087
154
root 12.2681 18.1902 -18.3146 2.42128 -69.5266 0.753331
lowerback -1.99509 1.93041 2.26109
upperback 0.316573 2.50022 0.817077
thorax 1.50253 1.26223 -0.345504
lowerneck -7.38432 8.62239 9.7983
upperneck 21.9082 13.382 -14.0978
head 9.76864 5.63916 -5.03135
rclavicle -2.4699e-014 2.38542e-015
rhumerus -40.3528 -21.6416 -67.8868
rradius 27.4535
rwrist 8.41546
rhand -17.6425 29.2215
rfingers 7.12502
rthumb 8.61533 -0.582706
lclavicle -2.4699e-014 2.38542e-015
lhumerus -29.6122 -2.74724 77.098
lradius 30.4368
lwrist -4.56582
lhand -10.442 16.1754
lfingers 7.12502
lthumb 15.5579 45.5696
rfemur -3.86436 14.0148 18.8968
rtibia 18.2253
rfoot -10.1048 -22.1212
rtoes 6.21767
lfemur -5.28585 0.655901 -14.7382
ltibia 22.8738
lfoot -18.6895 4.67125
ltoes 3.41758
155
root 12.2715 18.1879 -18.3123 3.58165 -69.2544 -0.420124
lowerback -2.0293 1.74807 2.79559
upperback 0.376972 2.23947 0.846234
thorax 1.59729 1.13739 -0.620521
lowerneck -7.15133 8.84962 10.1799
upperneck 21.8064 13.714 -14.3814
head 9.78744 5.81072 -5.1566
rclavicle -2.75565e-014 1.70955e-014
rhumerus -40.1515 -21.2904 -68.2073
rradius 27.5112
rwrist 8.36388
rhand -16.5928 30.6087
rfingers 7.12502
rthumb 9.62823 0.848723
lclavicle -2.75565e-014 1.70955e-014
lhumerus -29.2797 -4.92707 76.8671
lradius 30.8346
lwrist -3.24218
lhand -10.805 15.3297
lfingers 7.12502
lthumb 15.2084 44.7507
rfemur -3.99896 13.5289 19.3317
rtibia 18.3213
rfoot -9.47564 -22.086
rtoes 4.31857
lfemur -5.6826 0.933772 -14.1896
ltibia 23.3472
lfoot -18.2857 4.13991
ltoes 2.59614
156
root 12.2623 18.1813 -18.2944 0.552286 -69.5095 2.39886
lowerback -1.88158 1.58356 1.95675
upperback 0.741756 2.05037 0.436753
thorax 1.86757 1.04322 -0.575985
lowerneck -7.44219 9.26003 10.7589
upperneck 22.0289 14.2949 -14.6919
head 10.083 6.07547 -5.27338
rclavicle 3.40667e-014 -4.37326e-015
rhumerus -39.5465 -20.86 -68.8921
rradius 27.4631
rwrist 8.3054
rhand -16.0834 31.2372
rfingers 7.12502
rthumb 10.1197 1.50053
lclavicle 3.40667e-014 -4.37326e-015
lhumerus -29.1414 -5.51499 75.9474
lradius 31.923
lwrist -3.44578
lhand -10.6605 15.3033
lfingers 7.12502
lthumb 15.3475 44.7138
rfemur -3.57059 13.0977 18.2124
rtibia 18.3895
rfoot -9.5541 -21.6327
rtoes 4.07567
lfemur -5.36382 1.29096 -15.3227
ltibia 23.7905
lfoot -18.2868 3.89777
ltoes 1.91803
157
root 12.2624 18.1855 -18.2922 0.305688 -69.5761 2.58812
lowerback -1.75205 1.59348 1.96569
upperback 0.83321 2.06688 0.356267
thorax 1.89246 1.05294 -0.664976
lowerneck -7.38607 9.64323 11.5065
upperneck 22.2017 14.8825 -15.2135
head 10.3361 6.35505 -5.50574
rclavicle -4.11733e-014 -3.97569e-015
rhumerus -39.421 -20.8297 -69.0313
rradius 27.4603
rwrist 8.34631
rhand -15.6411 31.3559
rfingers 7.12502
rthumb 10.5464 1.6405
lclavicle -4.11733e-014 -3.97569e-015
lhumerus -28.8361 -6.28304 75.3162
lradius 32.5934
lwrist -4.00711
lhand -10.3899 15.6601
lfingers 7.12502
lthumb 15.6082 45.0503
rfemur -3.53437 13.1677 18.1524
rtibia 18.4769
rfoot -9.85499 -21.644
rtoes 4.94782
lfemur -5.52897 1.61191 -15.3418
ltibia 24.2358
lfoot -17.9713 3.67429
ltoes 0.0998533
158
root 12.2629 18.1953 -18.2937 0.240161 -69.6654 2.56411
lowerback -1.55724 1.70403 2.02332
upperback 0.885098 2.21712 0.340159
thorax 1.8433 1.12868 -0.713513
lowerneck -7.27802 9.71236 11.3418
upperneck 22.3737 14.972 -14.9573
head 10.3545 6.40554 -5.37915
rclavicle 5.4144e-014 -1.59028e-015
rhumerus -39.49 -20.8475 -68.9045
rradius 27.5249
rwrist 8.44507
rhand -15.4431 31.5698
rfingers 7.12502
rthumb 10.7373 1.86417
lclavicle 5.4144e-014 -1.59028e-015
lhumerus -28.0796 -8.92548 75.2219
lradius 32.3001
lwrist -2.87174
lhand -10.9079 15.555
lfingers 7.12502
lthumb 15.1092 44.9835
rfemur -3.5522 13.2712 18.1926
rtibia 18.6558
rfoot -9.87984 -21.6939
rtoes 4.92751
lfemur -5.63411 1.81428 -15.2578
ltibia 24.6314
lfoot -17.651 3.33755
ltoes 0.342952
159
root 12.2631 18.1993 -18.2927 -0.475147 -69.7715 3.04501
lowerback -1.36087 1.75102 1.91025
upperback 1.08865 2.28483 0.292807
thorax 1.94138 1.16332 -0.698925
lowerneck -6.81054 9.76301 11.1328
upperneck 22.0257 15.0505 -14.9124
head 10.1278 6.46327 -5.32761
rclavicle 3.91109e-014 9.54166e-015
rhumerus -39.2868 -20.6885 -68.9323
rradius 27.5443
rwrist 8.48668
rhand -15.6278 31.8913
rfingers 7.12502
rthumb 10.5593 2.17659
lclavicle 3.91109e-014 9.54166e-015
lhumerus -27.3253 -11.2992 74.963
lradius 32.2027
lwrist -1.74028
lhand -11.0092 15.1879
lfingers 7.12502
lthumb 15.0116 44.6237
rfemur -3.29087 13.3107 18.0659
rtibia 18.6842
rfoot -9.8009 -21.7149
rtoes 4.75438
lfemur -5.65687 2.17938 -15.3239
ltibia 25.2423
lfoot -17.4041 2.67814
ltoes 0.878076
